<?xml version="1.0" encoding="utf-8"?>
<!-- Generator: Adobe Illustrator 27.7.0, SVG Export Plug-In . SVG Version: 6.00 Build 0)  -->
<svg version="1.1" id="Layer_1" xmlns="http://www.w3.org/2000/svg" xmlns:xlink="http://www.w3.org/1999/xlink" x="0px" y="0px"
	 viewBox="0 0 60 60" style="enable-background:new 0 0 60 60;" xml:space="preserve">
<style type="text/css">
	.st0{fill:#FFFFFF;}
	.st1{fill:#231F20;}
</style>
<polygon class="st0" points="59.32,59.96 41.86,59.96 25.87,36.7 5.86,59.96 0.68,59.96 23.57,33.35 0.68,0.04 18.14,0.04 
	33.28,22.07 52.23,0.04 57.41,0.04 35.58,25.41 "/>
<path class="st1" d="M35.58,25.41L57.41,0.04h-5.18L33.28,22.07L18.14,0.04H0.68l22.89,33.31L0.68,59.96h5.18L25.87,36.7
	l15.99,23.26h17.46L35.58,25.41z M28.49,33.65l-2.32-3.32L7.72,3.93h7.95l14.89,21.31l2.32,3.31l19.36,27.69h-7.95L28.49,33.65z"/>
</svg>
