<svg xmlns="http://www.w3.org/2000/svg" viewBox="0 0 60 60">
    <g fill="#fff">
        <path d="M6.41,5H53a1.42,1.42,0,0,1,1.41,1.4V53.56A1.4,1.4,0,0,1,53.05,55H6.41A1.4,1.4,0,0,1,5,53.61V6.4A1.42,1.42,0,0,1,6.41,5Z"/>
    </g>
    <g fill="#000">
        <path d="M30,0c-8.15,0-9.17,0-12.37.18a21.83,21.83,0,0,0-7.28,1.4A14.55,14.55,0,0,0,5,5a14.78,14.78,0,0,0-3.47,5.31A22.05,22.05,0,0,0,.18,17.63C0,20.83,0,21.85,0,30s0,9.17.18,12.37a22.07,22.07,0,0,0,1.39,7.28A14.7,14.7,0,0,0,5,55a14.78,14.78,0,0,0,5.31,3.47,22.07,22.07,0,0,0,7.28,1.39C20.83,60,21.85,60,30,60s9.17,0,12.37-.18a22.07,22.07,0,0,0,7.28-1.39,15.45,15.45,0,0,0,8.78-8.78,22.07,22.07,0,0,0,1.39-7.28C60,39.17,60,38.15,60,30s0-9.17-.18-12.37a22.07,22.07,0,0,0-1.39-7.28A14.7,14.7,0,0,0,55,5a14.54,14.54,0,0,0-5.31-3.46A21.77,21.77,0,0,0,42.37.18C39.17,0,38.15,0,30,0Zm0,5.41c8,0,9,0,12.12.17a16.56,16.56,0,0,1,5.57,1,9.42,9.42,0,0,1,3.45,2.25,9.42,9.42,0,0,1,2.25,3.45,16.56,16.56,0,0,1,1,5.57c.14,3.16.17,4.11.17,12.12s0,9-.17,12.12a16.56,16.56,0,0,1-1,5.57,10,10,0,0,1-5.7,5.7,16.56,16.56,0,0,1-5.57,1C39,54.5,38,54.53,30,54.53s-9,0-12.12-.17a16.56,16.56,0,0,1-5.57-1,9.42,9.42,0,0,1-3.45-2.25,9.42,9.42,0,0,1-2.25-3.45,16.56,16.56,0,0,1-1-5.57C5.44,39,5.41,38,5.41,30s0-9,.17-12.12a16.56,16.56,0,0,1,1-5.57A9.29,9.29,0,0,1,8.86,8.86a9.42,9.42,0,0,1,3.45-2.25,16.56,16.56,0,0,1,5.57-1C21,5.44,22,5.41,30,5.41Z"/><path id="svg_3" data-name="svg 3" class="cls-2" d="M30,40A10,10,0,1,1,40,30,10,10,0,0,1,30,40Zm0-25.41A15.41,15.41,0,1,0,45.41,30,15.41,15.41,0,0,0,30,14.59Z"/>
        <path d="M49.61,14A3.6,3.6,0,1,1,46,10.4h0A3.6,3.6,0,0,1,49.61,14Z"/>
    </g>
</svg>