<svg xmlns="http://www.w3.org/2000/svg" viewBox="0 0 60 60">
    <g fill="#fff">
        <path d="M41.59,38.66,42.91,30H34.6V24.36c0-2.37,1.16-4.68,4.89-4.68h3.78V12.29a46,46,0,0,0-6.72-.58c-6.85,0-11.33,4.15-11.33,11.67V30H17.61v8.67h7.61v21a30.73,30.73,0,0,0,9.38,0v-21Z"/>
    </g>
    <g fill="#000">
        <path d="M29.91,0a30,30,0,0,0-4.69,59.64v-21H17.61V30h7.61V23.38c0-7.52,4.48-11.67,11.33-11.67a46,46,0,0,1,6.72.58v7.39H39.49c-3.73,0-4.89,2.31-4.89,4.68V30h8.31l-1.33,8.67h-7v21A30,30,0,0,0,29.91,0"/>
    </g>
</svg>
