<svg viewBox="0 0 512 512" xmlns="http://www.w3.org/2000/svg" clip-rule="evenodd">
    <g fill="#fff">
        <rect height="256.000049" width="350.9334" y="124.687855" x="86.399969" />
    </g>
    <g fill="#000">
        <path d="m254.933333,-2.133334c141.29,0 256,114.71 256,256c0,141.29 -114.71,256 -256,256c-141.29,0 -256,-114.71 -256,-256c0,-141.29 114.71,-256 256,-256zm153.315,178.978c-3.68,-13.769 -14.522,-24.61 -28.29,-28.29c-24.958,-6.688 -125.025,-6.688 -125.025,-6.688c0,0 -100.067,0 -125.025,6.688c-13.765,3.68 -24.61,14.521 -28.29,28.29c-6.685,24.955 -6.685,77.024 -6.685,77.024c0,0 0,52.067 6.685,77.02c3.68,13.769 14.525,24.614 28.29,28.293c24.958,6.685 125.025,6.685 125.025,6.685c0,0 100.067,0 125.025,-6.685c13.768,-3.679 24.61,-14.524 28.29,-28.293c6.685,-24.953 6.685,-77.02 6.685,-77.02c0,0 0,-52.069 -6.685,-77.024zm-185.316,125.025l0,-96.002l83.137,48.001l-83.137,48.001z"/>
    </g>
</svg>